<mxfile host="app.diagrams.net" modified="2024-05-16T10:31:58.795Z" agent="Mozilla/5.0 (Windows NT 10.0; Win64; x64) AppleWebKit/537.36 (KHTML, like Gecko) Chrome/125.0.0.0 Safari/537.36" version="24.4.2" etag="Qg1DYLN9hgqfPSNYog1u" type="github">
  <diagram name="Trang-1" id="cS9zTW7O7vI2-AfzTMMZ">
    <mxGraphModel>
      <root>
        <mxCell id="0" />
        <mxCell id="1" parent="0" />
      </root>
    </mxGraphModel>
  </diagram>
</mxfile>
